HIERARCHY
ROOT Hips
{
	OFFSET 0.000000 97.167313 0.000000
	CHANNELS 6 Xposition Yposition Zposition Xrotation Yrotation Zrotation
	JOINT Spine
	{
		OFFSET 0.000000 13.784798 0.064400
		CHANNELS 3 Xrotation Yrotation Zrotation
		JOINT Spine1
		{
			OFFSET 0.000000 12.037903 0.404700
			CHANNELS 3 Xrotation Yrotation Zrotation
			JOINT Spine2
			{
				OFFSET 0.000000 17.795601 0.420200
				CHANNELS 3 Xrotation Yrotation Zrotation
				JOINT Neck
				{
					OFFSET 0.000000 39.131302 11.954600
					CHANNELS 3 Xrotation Yrotation Zrotation
					JOINT Head
					{
						OFFSET 0.000000 14.456192 15.627699
						CHANNELS 3 Xrotation Yrotation Zrotation
						JOINT HeadTop_End
						{
							OFFSET 0.000000 15.703506 7.603401
							CHANNELS 3 Xrotation Yrotation Zrotation
							End Site
							{
								OFFSET 0.000000 17.447403 0.000000
							}
						}
					}
				}
				JOINT LeftShoulder
				{
					OFFSET 17.399500 24.608795 1.168800
					CHANNELS 3 Xrotation Yrotation Zrotation
					JOINT LeftArm
					{
						OFFSET 18.980635 5.765305 1.818600
						CHANNELS 3 Xrotation Yrotation Zrotation
						JOINT LeftForeArm
						{
							OFFSET 49.290169 0.000000 0.000000
							CHANNELS 3 Xrotation Yrotation Zrotation
							JOINT LeftHand
							{
								OFFSET 31.562012 0.000000 0.000000
								CHANNELS 3 Xrotation Yrotation Zrotation
								JOINT LeftHandThumb1
								{
									OFFSET 6.133995 -4.388519 7.076070
									CHANNELS 3 Xrotation Yrotation Zrotation
									JOINT LeftHandThumb2
									{
										OFFSET 6.037666 -3.485840 3.485847
										CHANNELS 3 Xrotation Yrotation Zrotation
										JOINT LeftHandThumb3
										{
											OFFSET 6.496506 -3.750763 3.750761
											CHANNELS 3 Xrotation Yrotation Zrotation
											JOINT LeftHandThumb4
											{
												OFFSET 5.616882 -3.242905 3.242910
												CHANNELS 3 Xrotation Yrotation Zrotation
												End Site
												{
													OFFSET -1.254608 7.132141 0.375429
												}
											}
										}
									}
								}
								JOINT LeftHandPinky1
								{
									OFFSET 18.920792 -0.453171 -11.426712
									CHANNELS 3 Xrotation Yrotation Zrotation
									JOINT LeftHandPinky2
									{
										OFFSET 4.919586 0.000000 0.000000
										CHANNELS 3 Xrotation Yrotation Zrotation
										JOINT LeftHandPinky3
										{
											OFFSET 5.233047 0.000000 0.000000
											CHANNELS 3 Xrotation Yrotation Zrotation
											JOINT LeftHandPinky4
											{
												OFFSET 5.571716 0.000000 0.000000
												CHANNELS 3 Xrotation Yrotation Zrotation
												End Site
												{
													OFFSET -3.459808 4.342407 -0.466164
												}
											}
										}
									}
								}
								JOINT LeftHandRing1
								{
									OFFSET 22.726120 -0.094986 -6.500475
									CHANNELS 3 Xrotation Yrotation Zrotation
									JOINT LeftHandRing2
									{
										OFFSET 6.408615 0.000000 0.000000
										CHANNELS 3 Xrotation Yrotation Zrotation
										JOINT LeftHandRing3
										{
											OFFSET 6.150223 0.000000 0.000000
											CHANNELS 3 Xrotation Yrotation Zrotation
											JOINT LeftHandRing4
											{
												OFFSET 6.145386 0.000000 0.000000
												CHANNELS 3 Xrotation Yrotation Zrotation
												End Site
												{
													OFFSET -3.671402 4.923981 -0.202372
												}
											}
										}
									}
								}
								JOINT LeftHandMiddle1
								{
									OFFSET 23.373947 0.000000 0.000001
									CHANNELS 3 Xrotation Yrotation Zrotation
									JOINT LeftHandMiddle2
									{
										OFFSET 6.996567 0.000000 0.000000
										CHANNELS 3 Xrotation Yrotation Zrotation
										JOINT LeftHandMiddle3
										{
											OFFSET 7.015945 0.000000 0.000000
											CHANNELS 3 Xrotation Yrotation Zrotation
											JOINT LeftHandMiddle4
											{
												OFFSET 7.721573 0.000000 0.000000
												CHANNELS 3 Xrotation Yrotation Zrotation
												End Site
												{
													OFFSET -4.651108 6.158463 0.251582
												}
											}
										}
									}
								}
								JOINT LeftHandIndex1
								{
									OFFSET 21.310577 -0.490082 6.209344
									CHANNELS 3 Xrotation Yrotation Zrotation
									JOINT LeftHandIndex2
									{
										OFFSET 7.536453 0.000000 0.000000
										CHANNELS 3 Xrotation Yrotation Zrotation
										JOINT LeftHandIndex3
										{
											OFFSET 7.512344 0.000000 0.000000
											CHANNELS 3 Xrotation Yrotation Zrotation
											JOINT LeftHandIndex4
											{
												OFFSET 10.212402 0.000000 0.000001
												CHANNELS 3 Xrotation Yrotation Zrotation
												End Site
												{
													OFFSET -5.180801 8.690506 1.388433
												}
											}
										}
									}
								}
							}
						}
					}
				}
				JOINT RightShoulder
				{
					OFFSET -17.399500 24.608795 1.168800
					CHANNELS 3 Xrotation Yrotation Zrotation
					JOINT RightArm
					{
						OFFSET -18.980635 5.765305 1.818600
						CHANNELS 3 Xrotation Yrotation Zrotation
						JOINT RightForeArm
						{
							OFFSET -49.290169 0.000000 0.000000
							CHANNELS 3 Xrotation Yrotation Zrotation
							JOINT RightHand
							{
								OFFSET -31.562012 0.000000 0.000000
								CHANNELS 3 Xrotation Yrotation Zrotation
								JOINT RightHandThumb1
								{
									OFFSET -6.133995 -4.388519 7.076070
									CHANNELS 3 Xrotation Yrotation Zrotation
									JOINT RightHandThumb2
									{
										OFFSET -6.037666 -3.485840 3.485847
										CHANNELS 3 Xrotation Yrotation Zrotation
										JOINT RightHandThumb3
										{
											OFFSET -6.496506 -3.750763 3.750761
											CHANNELS 3 Xrotation Yrotation Zrotation
											JOINT RightHandThumb4
											{
												OFFSET -5.616882 -3.242905 3.242910
												CHANNELS 3 Xrotation Yrotation Zrotation
												End Site
												{
													OFFSET 1.254608 7.132141 0.375429
												}
											}
										}
									}
								}
								JOINT RightHandIndex1
								{
									OFFSET -21.310577 -0.490082 6.209344
									CHANNELS 3 Xrotation Yrotation Zrotation
									JOINT RightHandIndex2
									{
										OFFSET -7.536453 0.000000 0.000000
										CHANNELS 3 Xrotation Yrotation Zrotation
										JOINT RightHandIndex3
										{
											OFFSET -7.512344 0.000000 0.000000
											CHANNELS 3 Xrotation Yrotation Zrotation
											JOINT RightHandIndex4
											{
												OFFSET -10.212402 0.000000 0.000001
												CHANNELS 3 Xrotation Yrotation Zrotation
												End Site
												{
													OFFSET 5.180801 8.690506 1.388433
												}
											}
										}
									}
								}
								JOINT RightHandMiddle1
								{
									OFFSET -23.373947 0.000000 0.000001
									CHANNELS 3 Xrotation Yrotation Zrotation
									JOINT RightHandMiddle2
									{
										OFFSET -6.996567 0.000000 0.000000
										CHANNELS 3 Xrotation Yrotation Zrotation
										JOINT RightHandMiddle3
										{
											OFFSET -7.015945 0.000000 0.000000
											CHANNELS 3 Xrotation Yrotation Zrotation
											JOINT RightHandMiddle4
											{
												OFFSET -7.721573 0.000000 0.000000
												CHANNELS 3 Xrotation Yrotation Zrotation
												End Site
												{
													OFFSET 4.651108 6.158463 0.251582
												}
											}
										}
									}
								}
								JOINT RightHandRing1
								{
									OFFSET -22.726120 -0.094986 -6.500475
									CHANNELS 3 Xrotation Yrotation Zrotation
									JOINT RightHandRing2
									{
										OFFSET -6.408615 0.000000 0.000000
										CHANNELS 3 Xrotation Yrotation Zrotation
										JOINT RightHandRing3
										{
											OFFSET -6.150223 0.000000 0.000000
											CHANNELS 3 Xrotation Yrotation Zrotation
											JOINT RightHandRing4
											{
												OFFSET -6.145386 0.000000 0.000000
												CHANNELS 3 Xrotation Yrotation Zrotation
												End Site
												{
													OFFSET 3.671402 4.923981 -0.202372
												}
											}
										}
									}
								}
								JOINT RightHandPinky1
								{
									OFFSET -18.920792 -0.453171 -11.426712
									CHANNELS 3 Xrotation Yrotation Zrotation
									JOINT RightHandPinky2
									{
										OFFSET -4.919586 0.000000 0.000000
										CHANNELS 3 Xrotation Yrotation Zrotation
										JOINT RightHandPinky3
										{
											OFFSET -5.233047 0.000000 0.000000
											CHANNELS 3 Xrotation Yrotation Zrotation
											JOINT RightHandPinky4
											{
												OFFSET -5.571716 0.000000 0.000000
												CHANNELS 3 Xrotation Yrotation Zrotation
												End Site
												{
													OFFSET 3.459808 4.342407 -0.466164
												}
											}
										}
									}
								}
							}
						}
					}
				}
			}
		}
	}
	JOINT LeftUpLeg
	{
		OFFSET 19.899099 -7.885101 -3.429500
		CHANNELS 3 Xrotation Yrotation Zrotation
		JOINT LeftLeg
		{
			OFFSET 1.745560 -36.997807 10.304700
			CHANNELS 3 Xrotation Yrotation Zrotation
			JOINT LeftFoot
			{
				OFFSET -1.745558 -29.803308 -13.615400
				CHANNELS 3 Xrotation Yrotation Zrotation
				JOINT LeftToeBase
				{
					OFFSET 1.181900 -18.539904 15.226099
					CHANNELS 3 Xrotation Yrotation Zrotation
					JOINT LeftToe_End
					{
						OFFSET -0.863701 1.402801 16.534700
						CHANNELS 3 Xrotation Yrotation Zrotation
						End Site
						{
							OFFSET 0.000000 16.616566 0.000000
						}
					}
				}
			}
		}
	}
	JOINT RightUpLeg
	{
		OFFSET -19.899099 -7.885101 -3.429500
		CHANNELS 3 Xrotation Yrotation Zrotation
		JOINT RightLeg
		{
			OFFSET -1.745560 -36.997807 10.304700
			CHANNELS 3 Xrotation Yrotation Zrotation
			JOINT RightFoot
			{
				OFFSET 1.745558 -29.803308 -13.615400
				CHANNELS 3 Xrotation Yrotation Zrotation
				JOINT RightToeBase
				{
					OFFSET -1.181900 -18.539904 15.226099
					CHANNELS 3 Xrotation Yrotation Zrotation
					JOINT RightToe_End
					{
						OFFSET 0.863701 1.402801 16.534700
						CHANNELS 3 Xrotation Yrotation Zrotation
						End Site
						{
							OFFSET 0.000000 16.616566 0.000000
						}
					}
				}
			}
		}
	}
}
MOTION
Frames: 4
Frame Time: 0.033333
-0.274129 89.842979 3.172822 2.379649 -11.977655 -0.418042 9.427090 1.980380 0.339594 2.870545 4.029874 0.917349 -9.001476 3.754922 1.727679 -3.883385 2.069928 -6.982799 5.912016 -0.105651 7.514015 -0.000001 0.000000 -0.000000 -1.295780 0.077911 -4.827729 -3.652862 -0.069567 -73.006922 -0.000032 -15.717652 -0.000192 2.306655 0.165001 -5.013195 8.265294 -7.734434 18.880835 5.407343 20.572694 -9.835130 1.742519 3.611570 -0.678882 0.000001 0.000001 0.000000 0.622141 -0.700685 -24.132853 -0.024681 -0.945268 -17.465355 -0.471777 -0.844738 -16.565963 0.000003 0.000001 0.000001 0.311237 -1.760786 -17.977522 -0.194376 -1.090517 -20.983270 -0.031940 -0.974396 -17.928726 0.000003 0.000000 0.000007 0.248950 -1.909219 -12.464956 -0.126937 -0.878873 -17.469090 -0.119948 -0.934108 -18.480105 -0.000000 -0.000001 0.000002 0.273655 -4.246519 -3.910702 0.097454 -0.794740 -17.447629 -0.022307 -0.374332 -8.071674 -0.000001 0.000001 0.000001 -1.295776 -0.077851 4.827745 3.909192 3.069877 67.997682 0.000024 18.089261 0.000010 2.313865 -1.592989 -2.170147 8.265305 7.734443 -18.880854 5.407315 -20.572685 9.835205 1.742521 -3.611587 0.678884 -0.000000 -0.000001 -0.000000 0.272403 4.252691 3.917161 0.097375 0.794947 17.452803 -0.022349 0.374603 8.076825 -0.000002 -0.000001 -0.000001 0.250231 1.903659 12.463679 -0.127011 0.878946 17.470150 -0.119945 0.934128 18.481201 0.000001 0.000001 -0.000001 0.310451 1.762620 17.988978 -0.194397 1.090570 20.984703 -0.031866 0.974265 17.926146 0.000002 0.000001 -0.000005 0.626377 0.701982 24.132083 -0.024626 0.945188 17.464116 -0.471734 0.844621 16.562784 -0.000000 0.000000 -0.000003 -17.282236 11.644338 17.122644 22.968932 2.575510 0.718902 -5.776752 7.549427 -13.876186 -3.075507 -2.348390 -2.459410 -0.000000 -0.000001 -0.000000 -9.224414 -8.034926 -10.233307 21.865983 -3.066017 -0.842319 -13.736514 -2.747285 11.696655 -5.415885 2.348504 2.459436 -0.000000 0.000000 0.000000 
-0.295877 89.917686 3.211300 2.293126 -11.826177 -0.414615 9.377790 1.980368 0.341250 2.825166 4.043761 0.922737 -9.011517 3.700643 1.701051 -3.814723 1.970785 -6.800483 6.077877 -0.160720 7.426143 0.000000 0.000000 0.000000 -1.290575 0.100237 -4.864517 -3.917699 -0.037903 -73.121751 0.075689 -15.494130 0.020090 2.258104 0.416631 -5.347769 8.265291 -7.734433 18.880837 5.407341 20.572695 -9.835126 1.742520 3.611571 -0.678880 0.000001 0.000002 0.000003 0.625563 -0.692949 -23.897048 -0.022027 -0.936745 -17.229533 -0.469722 -0.837666 -16.330146 0.000001 0.000000 -0.000006 0.315779 -1.746718 -17.601510 -0.189124 -1.076679 -20.607184 -0.027368 -0.960076 -17.552710 -0.000000 0.000002 0.000007 0.251848 -1.895587 -12.109725 -0.122900 -0.865723 -17.113903 -0.115620 -0.920978 -18.124860 0.000002 -0.000000 0.000004 0.274267 -4.237312 -3.668460 0.100228 -0.785631 -17.205407 -0.021035 -0.364921 -7.829500 -0.000002 0.000003 0.000002 -1.289015 -0.125828 4.804610 4.240707 2.818786 68.030118 0.111679 18.217545 -0.034849 2.395142 -1.494334 -2.105423 8.265307 7.734438 -18.880847 5.407320 -20.572685 9.835212 1.742519 -3.611590 0.678885 -0.000000 -0.000002 -0.000003 0.271653 4.263658 4.205175 0.093982 0.805788 17.740733 -0.023896 0.385849 8.364813 -0.000001 -0.000001 -0.000002 0.247169 1.917552 12.823848 -0.131152 0.892255 17.830303 -0.124308 0.947424 18.841326 0.000001 0.000000 -0.000008 0.305433 1.778180 18.403849 -0.200139 1.105861 21.399580 -0.036909 0.990051 18.340981 -0.000001 0.000001 -0.000001 0.622922 0.709697 24.367704 -0.027216 0.953693 17.699759 -0.473811 0.851686 16.798468 0.000000 0.000001 0.000002 -17.100956 11.647078 17.061357 22.735792 2.476936 0.679246 -5.715610 7.548522 -13.803708 -3.071849 -2.350487 -2.457587 -0.000000 -0.000001 -0.000000 -8.942243 -8.146794 -10.217182 21.654114 -3.161171 -0.899374 -13.718576 -2.740997 11.750611 -5.407056 2.389182 2.440516 0.000000 -0.000000 0.000000 
-0.328470 90.011589 3.255497 2.205888 -11.641109 -0.411446 9.293140 1.985043 0.341425 2.749287 4.069083 0.934496 -9.032164 3.615662 1.658780 -3.543918 1.849157 -6.607116 6.113862 -0.207090 7.340843 -0.000001 0.000000 -0.000000 -1.273032 0.135951 -4.908179 -4.137187 0.054725 -73.227688 0.086010 -15.347324 0.022651 2.274474 0.717642 -5.753589 8.265292 -7.734432 18.880842 5.407343 20.572694 -9.835124 1.742521 3.611570 -0.678887 -0.000000 -0.000001 -0.000001 0.628280 -0.686746 -23.708097 -0.019927 -0.929937 -17.040637 -0.468084 -0.831992 -16.141185 0.000003 -0.000000 -0.000000 0.319378 -1.735437 -17.300159 -0.185004 -1.065563 -20.305843 -0.023786 -0.948580 -17.251424 -0.000001 0.000001 0.000003 0.254106 -1.884686 -11.825066 -0.119693 -0.855133 -16.829219 -0.112198 -0.910438 -17.840232 -0.000000 0.000001 0.000009 0.274691 -4.229946 -3.474357 0.102475 -0.778321 -17.011308 -0.020017 -0.357358 -7.635426 -0.000000 0.000003 -0.000001 -1.273185 -0.201839 4.748937 4.590193 2.453522 68.110346 0.410056 18.424603 -0.129575 2.465868 -1.553928 -1.956827 8.265305 7.734438 -18.880854 5.407320 -20.572687 9.835208 1.742523 -3.611585 0.678892 -0.000001 -0.000001 0.000002 0.270800 4.275416 4.513484 0.090286 0.817395 18.049094 -0.025599 0.397872 8.673070 -0.000000 -0.000001 -0.000001 0.243809 1.932383 13.209298 -0.135649 0.906468 18.215710 -0.129053 0.961641 19.226793 0.000001 0.000001 -0.000004 0.299985 1.794809 18.847774 -0.206429 1.122144 21.843462 -0.042408 1.006911 18.784854 -0.000000 0.000001 -0.000003 0.619233 0.717969 24.620098 -0.030079 0.962788 17.952133 -0.476053 0.859246 17.050854 0.000003 -0.000000 0.000002 -16.914142 11.683345 16.979907 22.436453 2.374224 0.672729 -5.586300 7.505711 -13.737869 -3.071155 -2.381307 -2.431236 -0.000000 0.000001 -0.000000 -8.599204 -8.227227 -10.203183 21.375770 -3.316264 -0.915303 -13.672325 -2.732017 11.794920 -5.420100 2.378482 2.409262 -0.000000 -0.000004 -0.000000 
-0.370037 90.117584 3.302977 2.127221 -11.447920 -0.408236 9.173055 1.998810 0.338413 2.643740 4.104803 0.952468 -9.067691 3.509084 1.607609 -3.093665 1.732779 -6.431304 6.035781 -0.217702 7.282001 0.000000 0.000000 0.000000 -1.246163 0.174365 -4.963892 -4.213708 0.240817 -73.301392 0.250762 -15.351699 0.068148 2.148817 1.025264 -6.173682 8.265290 -7.734429 18.880842 5.407341 20.572694 -9.835128 1.742520 3.611569 -0.678881 0.000001 -0.000000 -0.000004 0.630486 -0.681774 -23.556919 -0.018322 -0.924478 -16.889444 -0.466760 -0.827424 -15.990004 -0.000001 -0.000001 -0.000002 0.322185 -1.726386 -17.059004 -0.181703 -1.056634 -20.064746 -0.020971 -0.939367 -17.010296 -0.000001 0.000000 0.000005 0.255890 -1.875904 -11.597280 -0.117188 -0.846693 -16.601470 -0.109506 -0.901966 -17.612415 0.000000 -0.000001 0.000001 0.275034 -4.224025 -3.319044 0.104225 -0.772470 -16.855949 -0.019211 -0.351304 -7.480076 -0.000001 0.000003 -0.000001 -1.241153 -0.313292 4.672760 4.952942 1.967503 68.238753 0.840434 18.729367 -0.269815 2.595959 -1.814642 -1.711293 8.265303 7.734436 -18.880852 5.407318 -20.572685 9.835203 1.742524 -3.611591 0.678885 -0.000001 -0.000002 -0.000003 0.269844 4.287647 4.834710 0.086371 0.829446 18.370309 -0.027463 0.410404 8.994249 -0.000000 0.000001 0.000001 0.240206 1.950197 13.610668 -0.140438 0.921269 18.617149 -0.134160 0.976365 19.628225 0.000001 -0.000000 -0.000004 0.289679 1.812053 19.310125 -0.213090 1.139097 22.305685 -0.048299 1.027774 19.246922 -0.000001 0.000001 -0.000005 0.615310 0.728988 24.883110 -0.033043 0.972260 18.215117 -0.478440 0.869310 17.313886 -0.000001 -0.000002 0.000002 -16.719402 11.707109 16.898989 22.090768 2.275299 0.704939 -5.446731 7.447995 -13.713434 -3.086745 -2.371705 -2.442956 -0.000000 -0.000001 -0.000000 -8.241085 -8.356963 -10.206697 21.050728 -3.390995 -0.848876 -13.618622 -2.747286 11.756286 -5.419032 2.401353 2.363485 -0.000000 0.000003 0.000000 
